<mxfile host="app.diagrams.net" agent="Mozilla/5.0 (Windows NT 10.0; Win64; x64) AppleWebKit/537.36 (KHTML, like Gecko) Chrome/133.0.0.0 Safari/537.36" version="26.0.15">
  <diagram name="Page-1" id="vA53FIjfbBSEWwDvAePv">
    <mxGraphModel dx="838" dy="2026" grid="1" gridSize="10" guides="1" tooltips="1" connect="1" arrows="1" fold="1" page="1" pageScale="1" pageWidth="850" pageHeight="1100" math="0" shadow="0">
      <root>
        <mxCell id="0" />
        <mxCell id="1" parent="0" />
        <mxCell id="qwZrsr77yzGVY-NEFFuO-3" value="" style="edgeStyle=orthogonalEdgeStyle;rounded=0;orthogonalLoop=1;jettySize=auto;html=1;" parent="1" source="qwZrsr77yzGVY-NEFFuO-1" target="qwZrsr77yzGVY-NEFFuO-2" edge="1">
          <mxGeometry relative="1" as="geometry" />
        </mxCell>
        <mxCell id="qwZrsr77yzGVY-NEFFuO-1" value="Data Collection (Video Capture)" style="rounded=0;whiteSpace=wrap;html=1;" parent="1" vertex="1">
          <mxGeometry x="390" y="-50" width="120" height="60" as="geometry" />
        </mxCell>
        <mxCell id="qwZrsr77yzGVY-NEFFuO-16" value="" style="edgeStyle=orthogonalEdgeStyle;rounded=0;orthogonalLoop=1;jettySize=auto;html=1;" parent="1" source="qwZrsr77yzGVY-NEFFuO-2" target="qwZrsr77yzGVY-NEFFuO-15" edge="1">
          <mxGeometry relative="1" as="geometry" />
        </mxCell>
        <mxCell id="qwZrsr77yzGVY-NEFFuO-2" value="Data Preprocessing (convert videos to frames FFmpeg)" style="rounded=0;whiteSpace=wrap;html=1;" parent="1" vertex="1">
          <mxGeometry x="390" y="50" width="120" height="60" as="geometry" />
        </mxCell>
        <mxCell id="qwZrsr77yzGVY-NEFFuO-18" value="" style="edgeStyle=orthogonalEdgeStyle;rounded=0;orthogonalLoop=1;jettySize=auto;html=1;" parent="1" source="qwZrsr77yzGVY-NEFFuO-15" target="qwZrsr77yzGVY-NEFFuO-17" edge="1">
          <mxGeometry relative="1" as="geometry" />
        </mxCell>
        <mxCell id="qwZrsr77yzGVY-NEFFuO-15" value="Feature Extraction&lt;br&gt;OpenPose, AlphaPose, RTMPose, MediaPipe" style="rounded=0;whiteSpace=wrap;html=1;" parent="1" vertex="1">
          <mxGeometry x="370" y="170" width="160" height="100" as="geometry" />
        </mxCell>
        <mxCell id="qwZrsr77yzGVY-NEFFuO-20" value="" style="edgeStyle=orthogonalEdgeStyle;rounded=0;orthogonalLoop=1;jettySize=auto;html=1;" parent="1" source="qwZrsr77yzGVY-NEFFuO-17" target="qwZrsr77yzGVY-NEFFuO-19" edge="1">
          <mxGeometry relative="1" as="geometry" />
        </mxCell>
        <mxCell id="VIWNDXNCPhXkDa3LOXaH-11" value="" style="edgeStyle=none;curved=1;rounded=0;orthogonalLoop=1;jettySize=auto;html=1;fontSize=12;startSize=8;endSize=8;" edge="1" parent="1" source="qwZrsr77yzGVY-NEFFuO-17" target="VIWNDXNCPhXkDa3LOXaH-10">
          <mxGeometry relative="1" as="geometry" />
        </mxCell>
        <mxCell id="qwZrsr77yzGVY-NEFFuO-17" value="Data Split&lt;br&gt;&amp;nbsp;80:10:10" style="rounded=0;whiteSpace=wrap;html=1;" parent="1" vertex="1">
          <mxGeometry x="390" y="310" width="120" height="60" as="geometry" />
        </mxCell>
        <mxCell id="qwZrsr77yzGVY-NEFFuO-19" value="Data Training" style="rounded=0;whiteSpace=wrap;html=1;" parent="1" vertex="1">
          <mxGeometry x="260" y="420" width="120" height="60" as="geometry" />
        </mxCell>
        <mxCell id="VIWNDXNCPhXkDa3LOXaH-4" value="" style="endArrow=none;html=1;rounded=0;fontSize=12;startSize=8;endSize=8;curved=1;" edge="1" parent="1">
          <mxGeometry width="50" height="50" relative="1" as="geometry">
            <mxPoint x="510" y="340" as="sourcePoint" />
            <mxPoint x="580" y="340" as="targetPoint" />
          </mxGeometry>
        </mxCell>
        <mxCell id="VIWNDXNCPhXkDa3LOXaH-6" value="Data Validation" style="rounded=0;whiteSpace=wrap;html=1;" vertex="1" parent="1">
          <mxGeometry x="520" y="420" width="120" height="60" as="geometry" />
        </mxCell>
        <mxCell id="VIWNDXNCPhXkDa3LOXaH-7" value="10%" style="text;html=1;align=center;verticalAlign=middle;resizable=0;points=[];autosize=1;strokeColor=none;fillColor=none;fontSize=16;" vertex="1" parent="1">
          <mxGeometry x="530" y="370" width="60" height="30" as="geometry" />
        </mxCell>
        <mxCell id="VIWNDXNCPhXkDa3LOXaH-8" value="" style="endArrow=classic;html=1;rounded=0;fontSize=12;startSize=8;endSize=8;curved=1;entryX=0.5;entryY=0;entryDx=0;entryDy=0;" edge="1" parent="1" target="VIWNDXNCPhXkDa3LOXaH-6">
          <mxGeometry width="50" height="50" relative="1" as="geometry">
            <mxPoint x="580" y="340" as="sourcePoint" />
            <mxPoint x="630" y="290" as="targetPoint" />
          </mxGeometry>
        </mxCell>
        <mxCell id="VIWNDXNCPhXkDa3LOXaH-9" value="80%" style="text;html=1;align=center;verticalAlign=middle;resizable=0;points=[];autosize=1;strokeColor=none;fillColor=none;fontSize=16;" vertex="1" parent="1">
          <mxGeometry x="310" y="370" width="60" height="30" as="geometry" />
        </mxCell>
        <mxCell id="VIWNDXNCPhXkDa3LOXaH-10" value="Data Testing" style="rounded=0;whiteSpace=wrap;html=1;" vertex="1" parent="1">
          <mxGeometry x="390" y="490" width="120" height="60" as="geometry" />
        </mxCell>
        <mxCell id="VIWNDXNCPhXkDa3LOXaH-12" value="10%" style="text;html=1;align=center;verticalAlign=middle;resizable=0;points=[];autosize=1;strokeColor=none;fillColor=none;fontSize=16;" vertex="1" parent="1">
          <mxGeometry x="440" y="450" width="60" height="30" as="geometry" />
        </mxCell>
        <mxCell id="VIWNDXNCPhXkDa3LOXaH-13" value="" style="endArrow=none;html=1;rounded=0;fontSize=12;startSize=8;endSize=8;curved=1;" edge="1" parent="1">
          <mxGeometry width="50" height="50" relative="1" as="geometry">
            <mxPoint x="320" y="570" as="sourcePoint" />
            <mxPoint x="320" y="480" as="targetPoint" />
          </mxGeometry>
        </mxCell>
        <mxCell id="VIWNDXNCPhXkDa3LOXaH-14" value="" style="endArrow=none;html=1;rounded=0;fontSize=12;startSize=8;endSize=8;curved=1;" edge="1" parent="1">
          <mxGeometry width="50" height="50" relative="1" as="geometry">
            <mxPoint x="579.5" y="570" as="sourcePoint" />
            <mxPoint x="579.5" y="480" as="targetPoint" />
          </mxGeometry>
        </mxCell>
        <mxCell id="VIWNDXNCPhXkDa3LOXaH-15" value="" style="endArrow=none;html=1;rounded=0;fontSize=12;startSize=8;endSize=8;curved=1;" edge="1" parent="1">
          <mxGeometry width="50" height="50" relative="1" as="geometry">
            <mxPoint x="449.5" y="640" as="sourcePoint" />
            <mxPoint x="449.5" y="550" as="targetPoint" />
          </mxGeometry>
        </mxCell>
        <mxCell id="VIWNDXNCPhXkDa3LOXaH-16" value="" style="endArrow=none;html=1;rounded=0;fontSize=12;startSize=8;endSize=8;curved=1;" edge="1" parent="1">
          <mxGeometry width="50" height="50" relative="1" as="geometry">
            <mxPoint x="320" y="570" as="sourcePoint" />
            <mxPoint x="580" y="570" as="targetPoint" />
          </mxGeometry>
        </mxCell>
        <mxCell id="VIWNDXNCPhXkDa3LOXaH-19" value="" style="edgeStyle=none;curved=1;rounded=0;orthogonalLoop=1;jettySize=auto;html=1;fontSize=12;startSize=8;endSize=8;" edge="1" parent="1" source="VIWNDXNCPhXkDa3LOXaH-17" target="VIWNDXNCPhXkDa3LOXaH-18">
          <mxGeometry relative="1" as="geometry" />
        </mxCell>
        <mxCell id="VIWNDXNCPhXkDa3LOXaH-17" value="BodyMTS &lt;br&gt;Processing&lt;br&gt;(Time Series Analysis)" style="rounded=0;whiteSpace=wrap;html=1;" vertex="1" parent="1">
          <mxGeometry x="385" y="640" width="130" height="60" as="geometry" />
        </mxCell>
        <mxCell id="VIWNDXNCPhXkDa3LOXaH-21" value="" style="edgeStyle=none;curved=1;rounded=0;orthogonalLoop=1;jettySize=auto;html=1;fontSize=12;startSize=8;endSize=8;" edge="1" parent="1" source="VIWNDXNCPhXkDa3LOXaH-18">
          <mxGeometry relative="1" as="geometry">
            <mxPoint x="447.29965156794424" y="832.1080139372825" as="targetPoint" />
          </mxGeometry>
        </mxCell>
        <mxCell id="VIWNDXNCPhXkDa3LOXaH-18" value="Model Training (ROCKET)" style="rounded=0;whiteSpace=wrap;html=1;" vertex="1" parent="1">
          <mxGeometry x="390" y="740" width="120" height="60" as="geometry" />
        </mxCell>
        <mxCell id="VIWNDXNCPhXkDa3LOXaH-26" value="Model Evaluation &amp;amp; Testing (Accuracy, Precision, Recall, F1-Score)" style="rounded=0;whiteSpace=wrap;html=1;" vertex="1" parent="1">
          <mxGeometry x="390" y="830" width="120" height="60" as="geometry" />
        </mxCell>
      </root>
    </mxGraphModel>
  </diagram>
</mxfile>
